# Blender v3.1.2 OBJ File: ''
# www.blender.org
mtllib cube.mtl
o Cube
v 1.000000 -1.000000 -1.000000
v 1.000000 -1.000000 1.000000
v -1.000000 -1.000000 -1.000000
v 1.000000 1.000000 -1.000000
v 1.000000 1.000000 1.000000
v -1.000000 1.000000 -1.000000
v -1.000000 1.000000 1.000000
v -1.000000 -1.000000 1.000000
vt 0.666467 0.000200
vt 0.333533 0.333134
vt 0.333533 0.000200
vt 0.666467 0.666467
vt 0.333533 0.333533
vt 0.666467 0.333533
vt 0.999800 0.000200
vt 0.666866 0.333134
vt 0.666866 0.000200
vt 0.000200 0.000200
vt 0.333134 0.333134
vt 0.000200 0.333134
vt 0.333134 0.666467
vt 0.000200 0.333533
vt 0.333134 0.333533
vt 0.000200 0.999800
vt 0.333134 0.666866
vt 0.333134 0.999800
vt 0.666467 0.333134
vt 0.333533 0.666467
vt 0.999800 0.333134
vt 0.333134 0.000200
vt 0.000200 0.666467
vt 0.000200 0.666866
vn 0.0000 0.0000 -1.0000
vn 1.0000 0.0000 0.0000
vn 0.0000 1.0000 0.0000
vn -1.0000 0.0000 0.0000
vn 0.0000 0.0000 1.0000
usemtl Material
s off
f 8/1/1 5/2/1 2/3/1
f 3/4/2 7/5/2 8/6/2
f 8/7/3 1/8/3 3/9/3
f 2/10/4 4/11/4 1/12/4
f 1/13/5 6/14/5 3/15/5
f 6/16/3 5/17/3 4/18/3
f 8/1/1 7/19/1 5/2/1
f 3/4/2 6/20/2 7/5/2
f 8/7/3 2/21/3 1/8/3
f 2/10/4 5/22/4 4/11/4
f 1/13/5 4/23/5 6/14/5
f 6/16/3 7/24/3 5/17/3
