# Blender v3.1.2 OBJ File: ''
# www.blender.org
mtllib texCube.mtl
o Cube
v 1.147755 -0.592778 1.288910
v -0.852245 1.407222 1.288910
v -0.852245 -0.592778 1.288910
v -0.852245 -0.592778 -0.711090
v 1.147755 1.407222 -0.711090
v 1.147755 -0.592778 -0.711090
v -0.852245 1.407222 -0.711090
v 1.147755 1.407222 1.288910
vt 1.000000 0.000000
vt 0.000000 1.000000
vt 0.000000 -0.000000
vt 1.000000 1.000000
vt 0.000000 -0.000000
vt 1.000000 0.000000
vt 0.000000 1.000000
vt 1.000000 0.000000
vt 1.000000 1.000000
vt 1.000000 0.000000
vt 0.000000 1.000000
vt 0.000000 -0.000000
vt 1.000000 1.000000
vt 1.000000 0.000000
vt 1.000000 1.000000
vt 0.000000 -0.000000
vt 0.000000 1.000000
vt 0.000000 -0.000000
vn 0.0000 1.0000 0.0000
vn 0.0000 0.0000 -1.0000
vn 1.0000 0.0000 0.0000
vn 0.0000 -1.0000 0.0000
vn -1.0000 0.0000 0.0000
vn 0.0000 0.0000 1.0000
usemtl Material
s off
f 7/1/1 8/2/1 5/3/1
f 7/4/2 6/5/2 4/6/2
f 5/7/3 1/8/3 6/9/3
f 6/10/4 3/11/4 4/12/4
f 2/13/5 4/12/5 3/14/5
f 8/2/6 3/14/6 1/15/6
f 7/1/1 2/13/1 8/2/1
f 7/4/2 5/7/2 6/5/2
f 5/7/3 8/16/3 1/8/3
f 6/10/4 1/15/4 3/11/4
f 2/13/5 7/17/5 4/12/5
f 8/2/6 2/18/6 3/14/6
